<svg id="Layer_6" data-name="Layer 6" xmlns="http://www.w3.org/2000/svg" viewBox="0 0 60 60"><defs><style>.cls-1{fill:#fff;}.cls-2{fill:#090;}</style></defs><title>checked-correct</title><rect class="cls-1" x="7.67" y="7.83" width="44.67" height="44.67"/><path class="cls-2" d="M0,5.74V54.26A5.74,5.74,0,0,0,5.74,60H54.26A5.74,5.74,0,0,0,60,54.26V5.74A5.74,5.74,0,0,0,54.26,0H5.74A5.74,5.74,0,0,0,0,5.74ZM45.7,24.8L28,42.5a2.36,2.36,0,0,1-1.6.7,2,2,0,0,1-1.6-.7L14.3,32a2.26,2.26,0,0,1,0-3.2l4-4a2.36,2.36,0,0,1,1.6-.7,2,2,0,0,1,1.6.7l4.8,4.8L38.4,17.5a2.36,2.36,0,0,1,1.6-.7,2,2,0,0,1,1.6.7l4,4a2.36,2.36,0,0,1,.7,1.6A2.72,2.72,0,0,1,45.7,24.8Z"/></svg>