<svg id="Layer_3" data-name="Layer 3" xmlns="http://www.w3.org/2000/svg" viewBox="0 0 60 60"><defs><style>.cls-1{fill:#656e7e;}</style></defs><title>checked</title><path class="cls-1" d="M0,6.06V53.94A6.06,6.06,0,0,0,6.06,60H53.94A6.06,6.06,0,0,0,60,53.94V6.06A6.06,6.06,0,0,0,53.94,0H6.06A6.06,6.06,0,0,0,0,6.06ZM45.7,24.8L28,42.5a2.36,2.36,0,0,1-1.6.7,2,2,0,0,1-1.6-.7L14.3,32a2.26,2.26,0,0,1,0-3.2l4-4a2.36,2.36,0,0,1,1.6-.7,2,2,0,0,1,1.6.7l4.8,4.8L38.4,17.5a2.36,2.36,0,0,1,1.6-.7,2,2,0,0,1,1.6.7l4,4a2.36,2.36,0,0,1,.7,1.6A2.72,2.72,0,0,1,45.7,24.8Z"/></svg>