<svg id="Layer_6" data-name="Layer 6" xmlns="http://www.w3.org/2000/svg" viewBox="0 0 60 60"><defs><style>.cls-1{fill:#fff;}.cls-2{fill:#ef4a38;}</style></defs><title>incorrect</title><rect class="cls-1" x="7.67" y="7.83" width="44.67" height="44.67"/><path class="cls-2" d="M0,5.51v49A5.51,5.51,0,0,0,5.51,60h49A5.51,5.51,0,0,0,60,54.49v-49A5.51,5.51,0,0,0,54.49,0h-49A5.51,5.51,0,0,0,0,5.51ZM44.67,40.65l-4,4a2.28,2.28,0,0,1-3.22,0L33.9,41.13a5.51,5.51,0,0,0-7.79,0l-3.54,3.54a2.27,2.27,0,0,1-3.22,0l-4-4a2.28,2.28,0,0,1,0-3.22l3.54-3.54a5.51,5.51,0,0,0,0-7.79l-3.54-3.54a2.27,2.27,0,0,1,0-3.22l4-4a2.28,2.28,0,0,1,3.22,0l3.54,3.54a5.51,5.51,0,0,0,7.79,0l3.54-3.54a2.27,2.27,0,0,1,3.22,0l4,4a2.28,2.28,0,0,1,0,3.22L41.13,26.1a5.51,5.51,0,0,0,0,7.79l3.54,3.54A2.27,2.27,0,0,1,44.67,40.65Z"/><path class="cls-2" d="M0,5.51v49A5.51,5.51,0,0,0,5.51,60h49A5.51,5.51,0,0,0,60,54.49v-49A5.51,5.51,0,0,0,54.49,0h-49A5.51,5.51,0,0,0,0,5.51ZM44.67,40.65l-4,4a2.28,2.28,0,0,1-3.22,0L33.9,41.13a5.51,5.51,0,0,0-7.79,0l-3.54,3.54a2.27,2.27,0,0,1-3.22,0l-4-4a2.28,2.28,0,0,1,0-3.22l3.54-3.54a5.51,5.51,0,0,0,0-7.79l-3.54-3.54a2.27,2.27,0,0,1,0-3.22l4-4a2.28,2.28,0,0,1,3.22,0l3.54,3.54a5.51,5.51,0,0,0,7.79,0l3.54-3.54a2.27,2.27,0,0,1,3.22,0l4,4a2.28,2.28,0,0,1,0,3.22L41.13,26.1a5.51,5.51,0,0,0,0,7.79l3.54,3.54A2.27,2.27,0,0,1,44.67,40.65Z"/><path class="cls-2" d="M0,5.52v49A5.52,5.52,0,0,0,5.52,60h49A5.52,5.52,0,0,0,60,54.48v-49A5.52,5.52,0,0,0,54.48,0h-49A5.52,5.52,0,0,0,0,5.52ZM44.67,40.65l-4,4a2.28,2.28,0,0,1-3.22,0l-3.53-3.53a5.52,5.52,0,0,0-7.81,0l-3.53,3.53a2.27,2.27,0,0,1-3.22,0l-4-4a2.28,2.28,0,0,1,0-3.22l3.53-3.53a5.52,5.52,0,0,0,0-7.81l-3.53-3.53a2.27,2.27,0,0,1,0-3.22l4-4a2.28,2.28,0,0,1,3.22,0l3.53,3.53a5.52,5.52,0,0,0,7.81,0l3.53-3.53a2.27,2.27,0,0,1,3.22,0l4,4a2.28,2.28,0,0,1,0,3.22l-3.53,3.53a5.52,5.52,0,0,0,0,7.81l3.53,3.53A2.27,2.27,0,0,1,44.67,40.65Z"/></svg>