<svg id="Layer_1" data-name="Layer 1" xmlns="http://www.w3.org/2000/svg" viewBox="0 0 234 107.42"><defs><style>.cls-1{fill:#69d2e7;}.cls-2{fill:#666;}</style></defs><title>logo</title><path class="cls-1" d="M84.78,61.83C88.9,56.17,92.13,48.22,89.24,47,83.3,44.37,73.32,59.32,73.32,64,73.32,67.35,78,71.1,84.78,61.83Z"/><path class="cls-1" d="M11.73,53.3a13,13,0,0,1-6.66.58A6.69,6.69,0,0,1,.28,50.94,13.28,13.28,0,0,0,3.88,63l5,5C7.31,60.92,11.73,53.3,11.73,53.3Z"/><path class="cls-1" d="M103.4,44.25L63,3.87a13.29,13.29,0,0,0-18.75,0L3.88,44.25A13.29,13.29,0,0,0,2,46.66c0.12,0.07.23,0.14,0.36,0.23,1.75,1.27,6.83-.22,11-2.18,3.92-1.84,7.54-4.95,8.77-4.95,2.39,0,3.91,4.14,3.23,6-0.28.78-4.61,7.92-6.56,12.34-2.79,6.28-3.3,10.27-2.2,10.27,6.14,0,22.17-28.76,24.57-28.76S46,43.37,46,46.14c0,1.55-6.38,8.62-9.05,14.1-2.1,4.3-2.28,8.31-.12,7.95s17.37-22.73,18.6-24.74c2.25-3.66,4.83-4.23,7.31-3.66,2,0.45-1.39,5.15.1,6.36s7.73,0,10.87-5.44C75,38.33,81.54,39,82,39.84c0.72,1.44-1.29,5.78-1.29,5.78s8.88-7.76,14.52-1c3.47,4.13.39,15.12-3.66,20.6s-10,9.2-17.1,7.83c-3.17-.62-5.84-5.19-5.84-5.19S50.41,99.21,47.9,98.89c-1.55-.2-4.25-3.49-4.25-5.4,0-3.21,25.11-44,25.13-44.14-0.41.4-4.7,3.06-7.86,1.59a5,5,0,0,1-2-2.6S43.08,72.63,37,73.43c-7.64,1-9.22-7.21-9.22-7.21s-7.32,7.25-12.61,8.08l29.11,29.09a13.29,13.29,0,0,0,18.75,0L103.4,63A13.29,13.29,0,0,0,103.4,44.25Z"/><path class="cls-2" d="M204.51,39.34c1.35-.12,4-5.94,4.11-7.49,0.09-2.24-2.5-5.35-4.67-5.91-0.94-.24-1.44.59-1.86,1.28-1.14,1.9-2.75,4.18-2.59,6.5a5.48,5.48,0,0,0,1,2.56C201.35,37.61,203,39.47,204.51,39.34Z"/><path class="cls-2" d="M199.84,60.54c-1.48-1.5-4.6,2.22-5.49,3.12-1.15,1.16-3.32,4.05-5.11,4.11-2,.07.28-2.24,1.63-3.93a105.79,105.79,0,0,0,10.69-15.71c0.65-1.28-.38-3.39-0.93-4.55-0.67-1.37-3.67-5.09-5.18-3.08-5.23,7-11.29,15.22-14.52,19.08-2.28,2.73-4.45,5.59-7.22,7.82-0.57.46-2.12,1.29-1.94-.13,0.77-5.89,3.82-11.09,6.46-16.29,0.8-1.56,1.88-3.14,2-4.94,0.18-2.13-2.58-5.21-4.45-6-2.06-.84-2.73,1-3.66,2.42-0.64,1-5.33,10.69-9.36,16.73-1.75,2.63-8.67,10-9.76,9.3-0.41-.24,2.36-6.06,2.65-6.57,1.84-3.26,3.47-6.1,5.48-10.11,1.27-2.52,3.32-5.37,1.73-8.14-0.59-1-3.54-5.56-5.06-4.15-3.2,3-5,7.15-7,10.86-0.89,1.61-1.7,3.27-2.47,4.95-2.29,5-4.89,8.49-3.34,13.3l0,0.07a205.65,205.65,0,0,0-19.56,14.34c3.71-6.1,7.53-12.14,11.24-18.25,1.86-3.05,3.69-6.13,5.46-9.23,1.25-2.18,2.4-4,3.64-6.29s2.07-4,2.07-5.23c0-3.13-2.78-5.36-3.76-5s-2.71,2.78-3.19,3.27-1.55-2.72-7.17-2.72a13.7,13.7,0,0,0-8.14,3.06,27.43,27.43,0,0,0-9.66,11.61c-2.57,5.6-4.23,12.48.66,17.37a10.64,10.64,0,0,0,3.76,2.36c0.66,2-11,20.33-14.28,27.41-1.57,3.33,3,6.88,4.86,5.73,1.23-.75,2.89-4.42,7.62-10.3a105.76,105.76,0,0,1,12.72-13.3c0.91-.8,10.64-9.82,15.54-11.79a6.69,6.69,0,0,0,3.48,2.41c2.38,0.61,4.61-.5,6.5-1.94,3-2.32,6.78-7.28,6.78-7.28a14.6,14.6,0,0,0,.07,4c0.7,3.51,2.36,5.08,4.67,5.46,4.1,0.67,10.26-7.76,11.16-8.69-0.23.24,1.56,5.33,4.44,7.31,2.07,1.43,5,.14,6.86-1.21C192.92,70.28,201.17,61.89,199.84,60.54Zm-79.35,8.12c-1.26-.24-0.69-3-0.2-4.49A30.55,30.55,0,0,1,132,48c2.18-1.5,5.23-1.42,5,.4-0.26,2.19-6.13,12.78-11.39,17.67C122.85,68.66,120.83,68.73,120.48,68.66Z"/><path class="cls-2" d="M233.72,61.48c-0.7-.43-4.55.51-8.31,1.66a11,11,0,0,0-2.25-3.42A8.59,8.59,0,0,0,220,57.86c0.1-.11,3.91-1.79,5.28-2.7,2.82-1.89,5-6.36,3.35-10.26-0.84-2-2.36-3.4-5.49-3.71-4.4-.43-11.72,2.21-15.16,4.36-1.75,1.09-3.62,2.37-3.86,3.83a2.19,2.19,0,0,0,1.66,2.32c0.88,0,4.54-1.25,7.56-2.08,2.43-.66,7.5-2.24,8.28-1.46s1.52,1.85-2.73,4.49a36.78,36.78,0,0,1-8,3.74,3.41,3.41,0,0,0-1.66,5.22c1.59,2,6.75-.16,8.53.88a4.26,4.26,0,0,1,2,2.72s-2.58.83-6,2C205,70.31,200.07,73,197.43,75c-6.39,4.72-2.87,14.56,6.2,14.56A23.11,23.11,0,0,0,221,82.48a19.09,19.09,0,0,0,5.6-12.86,33.67,33.67,0,0,0,5.86-3.26C233.72,65.33,234.43,61.92,233.72,61.48ZM217,79c-3.16,3.16-12.08,8.18-16.38,5.17-5.74-4,19.32-12.17,19.32-12.17A9.85,9.85,0,0,1,217,79Z"/></svg>