<svg id="Layer_1" data-name="Layer 1" xmlns="http://www.w3.org/2000/svg" viewBox="0 0 107.28 107.26"><defs><style>.cls-1{fill:#69d2e7;}</style></defs><title>Untitled-2</title><path class="cls-1" d="M84.78,61.83C88.9,56.17,92.13,48.22,89.24,47,83.3,44.37,73.32,59.32,73.32,64,73.32,67.35,78,71.1,84.78,61.83Z"/><path class="cls-1" d="M11.73,53.3a13,13,0,0,1-6.66.58A6.69,6.69,0,0,1,.28,50.94,13.28,13.28,0,0,0,3.88,63l5,5C7.31,60.92,11.73,53.3,11.73,53.3Z"/><path class="cls-1" d="M103.4,44.25L63,3.87a13.29,13.29,0,0,0-18.75,0L3.88,44.25A13.29,13.29,0,0,0,2,46.66c0.12,0.07.23,0.14,0.36,0.23,1.75,1.27,6.83-.22,11-2.18,3.92-1.84,7.54-4.95,8.77-4.95,2.39,0,3.91,4.14,3.23,6-0.28.78-4.61,7.92-6.56,12.34-2.79,6.28-3.3,10.27-2.2,10.27,6.14,0,22.17-28.76,24.57-28.76S46,43.37,46,46.14c0,1.55-6.38,8.62-9.05,14.1-2.1,4.3-2.28,8.31-.12,7.95s17.37-22.73,18.6-24.74c2.25-3.66,4.83-4.23,7.31-3.66,2,0.45-1.39,5.15.1,6.36s7.73,0,10.87-5.44C75,38.33,81.54,39,82,39.84c0.72,1.44-1.29,5.78-1.29,5.78s8.88-7.76,14.52-1c3.47,4.13.39,15.12-3.66,20.6s-10,9.2-17.1,7.83c-3.17-.62-5.84-5.19-5.84-5.19S50.41,99.21,47.9,98.89c-1.55-.2-4.25-3.49-4.25-5.4,0-3.21,25.11-44,25.13-44.14-0.41.4-4.7,3.06-7.86,1.59a5,5,0,0,1-2-2.6S43.08,72.63,37,73.43c-7.64,1-9.22-7.21-9.22-7.21s-7.32,7.25-12.61,8.08l29.11,29.09a13.29,13.29,0,0,0,18.75,0L103.4,63A13.29,13.29,0,0,0,103.4,44.25Z"/></svg>